# xmcd CD database file
#
# Track frame offsets:
#	150
#	21505
#	33637
#	47912
#	61542
#	79427
#	98385
#	115254
#	136675
#	153160
#	173835
#	190125
#	208952
#	227952
#
# Disc length: 3250 seconds
#
# Revision: 0
# Processed by: cddbd v1.5.1PL2 Copyright (c) Steve Scherf et al.
# Submitted via: CDex 1.51
#
DISCID=b80cb00e
DTITLE=Alabama - Alabama Hits, Disc 1
DYEAR=2004
DGENRE=Country
TTITLE0=American Pride
TTITLE1=See The Embers, Feel The Flame
TTITLE2=Why Lady Why
TTITLE3=How Do You Fall In Love
TTITLE4=Dixieland Delight
TTITLE5=Twentieth Century
TTITLE6=Take Me Down
TTITLE7=Dancin', Shaggin' On The Boulevard
TTITLE8=Mountain Music
TTITLE9=The Borderline
TTITLE10=Feels So Right
TTITLE11=Gonna Have A Party
TTITLE12=There's No Way
TTITLE13=In Pictures
EXTD=YEAR: 2004
EXTT0=
EXTT1=
EXTT2=
EXTT3=
EXTT4=
EXTT5=
EXTT6=
EXTT7=
EXTT8=
EXTT9=
EXTT10=
EXTT11=
EXTT12=
EXTT13=
PLAYORDER=
